<svg width="48" height="48" viewBox="0 0 48 48" fill="none" xmlns="http://www.w3.org/2000/svg">
<path d="M39 47.4966H9C4.029 47.4966 0 43.59 0 38.77V9.6816C0 4.86165 4.029 0.955078 9 0.955078H39C43.971 0.955078 48 4.86165 48 9.6816V38.77C48 43.59 43.971 47.4966 39 47.4966Z" fill="#FBF6EA"/>
<g clip-path="url(#clip0_9508_749)">
<path d="M17.8505 18.6143L15.8579 18.7635C15.3034 18.8051 14.8096 19.0868 14.503 19.5366L12.2049 22.9066C11.9724 23.2477 11.9354 23.6745 12.106 24.0484C12.2766 24.4223 12.6272 24.6828 13.0439 24.7454L14.8683 25.0194C15.2951 22.8233 16.3168 20.6325 17.8505 18.6143Z" fill="#FFD050"/>
<path d="M22.1836 32.1113L22.4662 33.8804C22.5307 34.2843 22.7995 34.6243 23.185 34.7897C23.3454 34.8585 23.5152 34.8925 23.6842 34.8925C23.9215 34.8925 24.1572 34.8254 24.3626 34.6937L27.8384 32.4656C28.3022 32.1682 28.5928 31.6893 28.6355 31.1518L28.7895 29.2197C26.7079 30.7069 24.4486 31.6975 22.1836 32.1113Z" fill="#FFD050"/>
<path d="M21.4966 30.8846C21.5599 30.8846 21.6236 30.8796 21.6872 30.8693C22.6361 30.7155 23.5507 30.4563 24.4232 30.1171L16.9244 22.8462C16.5746 23.6921 16.3073 24.5789 16.1486 25.499C16.0861 25.8617 16.2116 26.2312 16.4797 26.4913L20.6639 30.5483C20.8865 30.7641 21.187 30.8846 21.4966 30.8846Z" fill="#FFD050"/>
<path d="M33.1661 22.4788C35.0011 19.0389 35.069 15.4039 34.9731 13.6991C34.9403 13.1149 34.46 12.6492 33.8575 12.6174C33.5712 12.6022 33.2319 12.5913 32.8495 12.5913C30.8835 12.5913 27.7726 12.88 24.8027 14.3695C22.4424 15.5533 19.3475 18.1597 17.5215 21.5851C17.543 21.6015 17.5641 21.6188 17.584 21.638L25.6698 29.4782C25.6897 29.4975 25.7075 29.5179 25.7244 29.5388C29.2571 27.7682 31.9453 24.7673 33.1661 22.4788ZM25.3731 17.3059C26.6866 16.0322 28.8241 16.0321 30.1377 17.3059C30.7741 17.9228 31.1245 18.7432 31.1245 19.6158C31.1245 20.4884 30.7741 21.3088 30.1377 21.9257C29.481 22.5625 28.618 22.8809 27.7554 22.881C26.8925 22.8811 26.03 22.5627 25.3731 21.9257C24.7367 21.3088 24.3863 20.4884 24.3863 19.6158C24.3863 18.7432 24.7367 17.9228 25.3731 17.3059Z" fill="#232536"/>
<path d="M26.3264 21.0018C27.1146 21.766 28.3971 21.7661 29.1853 21.0018C29.5671 20.6316 29.7773 20.1394 29.7773 19.6158C29.7773 19.0923 29.5671 18.6001 29.1853 18.2299C28.7912 17.8478 28.2735 17.6567 27.7559 17.6567C27.2382 17.6567 26.7205 17.8478 26.3265 18.2299C25.9447 18.6001 25.7344 19.0923 25.7344 19.6158C25.7344 20.1394 25.9447 20.6316 26.3264 21.0018Z" fill="#232536"/>
<path d="M12.6875 30.9691C12.86 30.9691 13.0324 30.9054 13.164 30.7778L15.3639 28.6446C15.6271 28.3895 15.6271 27.9758 15.3639 27.7207C15.1008 27.4655 14.6741 27.4655 14.411 27.7207L12.211 29.8538C11.9479 30.1089 11.9479 30.5226 12.211 30.7778C12.3426 30.9053 12.5151 30.9691 12.6875 30.9691Z" fill="#FFD050"/>
<path d="M17.3799 29.6762C17.1168 29.4211 16.6901 29.4211 16.427 29.6762L12.1974 33.7773C11.9342 34.0325 11.9342 34.4461 12.1974 34.7013C12.3289 34.8289 12.5014 34.8926 12.6739 34.8926C12.8463 34.8926 13.0188 34.8289 13.1503 34.7013L17.3799 30.6002C17.6431 30.345 17.6431 29.9314 17.3799 29.6762Z" fill="#FFD050"/>
<path d="M18.4422 31.6303L16.2423 33.7634C15.9791 34.0186 15.9791 34.4323 16.2423 34.6874C16.3739 34.815 16.5463 34.8788 16.7187 34.8788C16.8911 34.8788 17.0636 34.815 17.1952 34.6874L19.3951 32.5543C19.6583 32.2991 19.6583 31.8855 19.3951 31.6303C19.132 31.3752 18.7054 31.3752 18.4422 31.6303Z" fill="#FFD050"/>
</g>
<defs>
<clipPath id="clip0_9508_749">
<rect width="23" height="22.3011" fill="white" transform="translate(12 12.5913)"/>
</clipPath>
</defs>
</svg>
